<!DOCTYPE svg PUBLIC "-//W3C//DTD SVG 1.1//EN" "http://www.w3.org/Graphics/SVG/1.1/DTD/svg11.dtd">
<!-- Uploaded to: SVG Repo, www.svgrepo.com, Transformed by: SVG Repo Mixer Tools -->
<svg width="64px" height="64px" viewBox="0 0 24.00 24.00" xmlns="http://www.w3.org/2000/svg" fill="#000000" stroke="#000000" stroke-width="0.00024000000000000003">
<g id="SVGRepo_bgCarrier" stroke-width="0"/>
<g id="SVGRepo_tracerCarrier" stroke-linecap="round" stroke-linejoin="round"/>
<g id="SVGRepo_iconCarrier">
<path d="M22.75 4H1.25A1.25 1.25 0 0 0 0 5.25v13.5A1.25 1.25 0 0 0 1.25 20h21.5A1.25 1.25 0 0 0 24 18.75V5.25A1.25 1.25 0 0 0 22.75 4zM1.25 19a.25.25 0 0 1-.25-.25V13h1v-2H1V5.25A.25.25 0 0 1 1.25 5H3v14zM4 5h17v14H4zm19 13.75a.25.25 0 0 1-.25.25H22V5h.75a.25.25 0 0 1 .25.25z"/>
<path fill="none" d="M0 0h24v24H0z"/>
</g>
</svg>